<svg width="39" height="32" viewBox="0 0 39 32" fill="none" xmlns="http://www.w3.org/2000/svg">
<path fill-rule="evenodd" clip-rule="evenodd" d="M30.2463 12.8407L27.8854 14.6842V15.5565C27.8854 16.1986 28.4139 16.7192 29.0659 16.7192C29.7178 16.7192 30.2463 16.1986 30.2463 15.5565V12.8407ZM16.8662 23.2883L19.2271 21.4448V27.7645C19.2271 28.4066 18.6986 28.9272 18.0466 28.9272C17.3947 28.9272 16.8662 28.4066 16.8662 27.7645V23.2883ZM8.21198 20.9918L5.8511 22.8352V19.4329H2.90114C2.2492 19.4329 1.7207 18.9124 1.7207 18.2702C1.7207 17.6281 2.2492 17.1075 2.90114 17.1075H11.1642C11.6589 17.1075 12.0826 17.4073 12.2581 17.8324L10.2084 19.4329H8.21198V20.9918ZM20.6322 11.2938H13.9162C13.2643 11.2938 12.7358 10.7732 12.7358 10.131C12.7358 9.48889 13.2643 8.96833 13.9162 8.96833H16.8662V3.34796C16.8662 2.70581 17.3947 2.18524 18.0466 2.18524C18.6986 2.18524 19.2271 2.70581 19.2271 3.34796V8.96833H22.1793C22.5412 8.96833 22.865 9.12871 23.0815 9.38124L20.6322 11.2938ZM27.8854 5.63025V3.34796C27.8854 2.70581 28.4139 2.18524 29.0659 2.18524C29.7178 2.18524 30.2463 2.70581 30.2463 3.34796V3.78681L27.8854 5.63025ZM8.21198 3.34796C8.21198 2.70581 7.68348 2.18524 7.03154 2.18524C6.3796 2.18524 5.8511 2.70581 5.8511 3.34796V12.8435C5.8511 13.4856 6.3796 14.0062 7.03154 14.0062C7.68348 14.0062 8.21198 13.4856 8.21198 12.8435V3.34796ZM33.1944 19.8182H29.0659H24.9313C24.2794 19.8182 23.7509 20.3388 23.7509 20.9809C23.7509 21.6231 24.2794 22.1436 24.9313 22.1436H27.8854V27.7634C27.8854 28.4056 28.4139 28.9262 29.0659 28.9262C29.7178 28.9262 30.2463 28.4056 30.2463 27.7634V22.1436H33.1944C33.8463 22.1436 34.3748 21.6231 34.3748 20.9809C34.3748 20.3388 33.8463 19.8182 33.1944 19.8182Z" fill="white"/>
<path d="M37.7207 2L1.7207 31" stroke="white" stroke-width="2" stroke-linecap="round"/>
</svg>
