<svg width="40" height="30" viewBox="0 0 40 30" fill="none" xmlns="http://www.w3.org/2000/svg">
<path fill-rule="evenodd" clip-rule="evenodd" d="M25.6686 4.5339C23.8569 4.4252 21.9678 4.37085 19.9997 4.37085C17.8128 4.37085 15.723 4.43667 13.7295 4.56811C11.7358 4.69954 9.90506 4.97455 8.23718 5.39313C6.56972 5.8115 5.12018 6.44034 3.88878 7.27921C2.65717 8.11808 1.70154 9.23345 1.02105 10.6257C0.340349 12.0178 0 13.7595 0 15.8605C0 17.9615 0.392937 19.842 1.17902 21.5021C1.48548 22.1492 1.83624 22.7431 2.23131 23.2837L4.44308 21.5143C4.14804 21.0952 3.89147 20.6255 3.67338 20.1051C3.16832 18.9001 2.9159 17.4852 2.9159 15.8607C2.9159 13.9037 3.30232 12.3529 4.07494 11.2086C4.84756 10.0642 5.97 9.21364 7.44184 8.65681C8.91388 8.09997 10.7055 7.73827 12.8168 7.57147C14.9281 7.40468 17.3223 7.32139 19.9994 7.32139C20.7415 7.32139 21.4617 7.32779 22.1602 7.34059L25.6686 4.5339ZM19.1225 19.3754C19.4042 19.3411 19.6966 19.324 19.9997 19.324C20.9107 19.324 21.7199 19.4789 22.4399 19.7886C23.16 20.0983 23.8335 20.4794 24.4614 20.9314C25.0893 21.3835 25.7219 21.8376 26.3588 22.2935C27.0013 22.7526 27.6924 23.1375 28.4192 23.4412C29.1561 23.7503 29.996 23.9028 30.9392 23.8988C32.1898 23.8988 33.2737 23.5678 34.1915 22.9057C35.1092 22.2436 35.8207 21.3102 36.3255 20.1051C36.8306 18.9001 37.083 17.4852 37.083 15.8607C37.083 13.9037 36.6966 12.3529 35.9239 11.2086C35.1513 10.0642 34.0285 9.21364 32.5556 8.65681C32.5477 8.65383 32.5398 8.65086 32.5319 8.6479L35.0425 6.63942C35.4151 6.83817 35.7711 7.05278 36.1105 7.28326C37.3419 8.11957 38.2995 9.23516 38.9827 10.63C39.6661 12.0249 40.0052 13.7684 39.9999 15.8607C39.9999 17.9617 39.6068 19.8423 38.8207 21.5023C38.0346 23.1624 36.9561 24.472 35.5849 25.4315C34.2136 26.3909 32.6528 26.8708 30.9026 26.8708C29.8084 26.8708 28.8218 26.7173 27.9426 26.4101C27.0633 26.1029 26.2597 25.7199 25.5323 25.2611C24.8418 24.827 24.1658 24.3696 23.5056 23.8896C22.8819 23.4342 22.2856 23.0531 21.7165 22.7459C21.1475 22.4388 20.5754 22.2854 20.0001 22.2854C19.4248 22.2854 18.8526 22.439 18.2836 22.7459C17.7144 23.0531 17.118 23.4353 16.4943 23.8926C15.8706 24.35 15.1952 24.8071 14.4676 25.264C13.74 25.721 12.9364 26.104 12.0572 26.4131C11.3653 26.6563 10.6052 26.8026 9.77693 26.8519L19.1225 19.3754Z" fill="white"/>
<path d="M35 1.87012L2.5 28.1299" stroke="white" stroke-width="2" stroke-linecap="round"/>
</svg>
