<svg width="38" height="22" viewBox="0 0 38 22" fill="none" xmlns="http://www.w3.org/2000/svg">
<path d="M0.969997 6.1159C0.323334 7.47705 0 9.18 0 11.2343C0 13.2886 0.373291 15.1274 1.12007 16.7506C1.86686 18.3735 2.89061 19.6541 4.19133 20.5924C5.49205 21.5307 6.97303 21.9998 8.63465 21.9998C9.67919 22.0037 10.619 21.8546 11.4543 21.5524C12.2896 21.2502 13.053 20.8757 13.7442 20.4289C14.4354 19.9821 15.0771 19.5351 15.6696 19.088C16.2621 18.6408 16.8287 18.2671 17.3694 17.9667C17.91 17.6666 18.4535 17.5164 19.0001 17.5164C19.5466 17.5164 20.0902 17.6664 20.6307 17.9667C21.1713 18.2671 21.7378 18.6397 22.3303 19.085C22.9576 19.5543 23.5997 20.0016 24.2557 20.426C24.9467 20.8746 25.7101 21.2491 26.5454 21.5495C27.3807 21.8498 28.318 22 29.3575 22C31.0201 22 32.5029 21.5307 33.8056 20.5926C35.1083 19.6545 36.1329 18.3739 36.8797 16.7508C37.6265 15.1276 37.9999 13.2889 37.9999 11.2345C38.0049 9.18874 37.6828 7.48392 37.0335 6.12007C36.3845 4.75621 35.4748 3.66542 34.305 2.84769C33.1352 2.03016 31.7583 1.41676 30.1738 1.00748C28.5893 0.598197 26.8504 0.32805 24.9561 0.19683C23.0619 0.0656101 21.0772 0 18.9997 0C16.9222 0 14.9368 0.0643604 13.043 0.192873C11.149 0.321385 9.40981 0.590282 7.82532 0.999564C6.24123 1.40864 4.86417 2.0235 3.69434 2.84373C2.52431 3.66396 1.61606 4.75475 0.969597 6.11611L0.969997 6.1159ZM3.48971 15.3846C3.00991 14.2064 2.77011 12.8229 2.77011 11.2345C2.77011 9.32101 3.1372 7.80468 3.87119 6.68577C4.60519 5.56686 5.6715 4.73517 7.06975 4.19071C8.46819 3.64625 10.1702 3.29258 12.1759 3.1295C14.1817 2.96641 16.4562 2.88497 18.9995 2.88497C21.5428 2.88497 23.8167 2.96641 25.8216 3.1295C27.8266 3.29258 29.5286 3.64625 30.9278 4.19071C32.327 4.73517 33.3938 5.56686 34.1277 6.68577C34.8617 7.80468 35.2288 9.32101 35.2288 11.2345C35.2288 12.8229 34.989 14.2064 34.5092 15.3846C34.0296 16.5629 33.3538 17.4756 32.4819 18.123C31.61 18.7703 30.5803 19.094 29.3923 19.094C28.4962 19.0979 27.6983 18.9488 26.9983 18.6466C26.3077 18.3496 25.6512 17.9732 25.0409 17.5243C24.4358 17.0786 23.8349 16.6346 23.2384 16.1926C22.6419 15.7506 22.002 15.378 21.318 15.0751C20.6339 14.7723 19.8652 14.6208 18.9997 14.6208C18.1342 14.6208 17.3606 14.7723 16.6794 15.0751C16.0039 15.3748 15.3614 15.7494 14.763 16.1926C14.1669 16.6346 13.566 17.0784 12.9609 17.5243C12.3558 17.9701 11.7029 18.3431 11.0021 18.6435C10.3013 18.9438 9.50034 19.094 8.59928 19.094C7.41626 19.094 6.38911 18.7703 5.51723 18.123C4.64535 17.4756 3.96972 16.5629 3.48991 15.3846H3.48971Z" fill="white"/>
</svg>
